Coordinates
version=1
nRows=22
nColumns=24
inDegrees=yes

Units are S.I. units (second, meters, Newtons, ...)
Angles are in degrees.

endheader
time	pelvis_tilt	pelvis_list	pelvis_rotation	pelvis_tx	pelvis_ty	pelvis_tz	hip_flexion_r	hip_adduction_r	hip_rotation_r	knee_angle_r	ankle_angle_r	subtalar_angle_r	mtp_angle_r	hip_flexion_l	hip_adduction_l	hip_rotation_l	knee_angle_l	ankle_angle_l	subtalar_angle_l	mtp_angle_l	lumbar_extension	lumbar_bending	lumbar_rotation
      3.38500000	     -9.45867479	      1.53909067	     -7.98676052	     -1.25966173	     -0.04622442	      0.65281630	     -9.46187534	     -1.58808298	     12.49325207	     -8.89948814	     12.51455864	      1.63614840	     11.97636339	     40.88774409	     -4.04384313	     -7.50924341	    -21.84418306	      4.25889743	      5.23392468	     -1.59935675	      3.98178770	      2.67359350	      7.39141184
      3.39000000	     -9.61448587	      1.84969229	     -8.29509497	     -1.25132094	     -0.04764939	      0.65349606	     -9.45658477	     -1.95380825	     12.59674652	     -9.42832040	     12.44642768	      1.92062876	     12.21607700	     40.86842024	     -3.88787773	     -7.41395853	    -21.58770549	      4.33372418	      5.17405125	     -1.65557202	      4.30631219	      2.21569129	      7.61576678
      3.39500000	     -9.63256466	      2.20008879	     -8.58367536	     -1.24301018	     -0.04891300	      0.65402709	     -9.49974603	     -2.40778310	     12.29286543	    -10.08979369	     12.45564048	      2.77403149	     12.96623180	     40.72374859	     -3.64362023	     -7.29825403	    -21.50406096	      4.29820478	      5.01812931	     -1.69112979	      4.47025883	      1.70287001	      7.85155596
      3.40000000	     -9.72788307	      2.53967534	     -8.85563776	     -1.23461527	     -0.05023920	      0.65452547	     -9.43504631	     -2.82619640	     12.16645897	    -10.80474318	     12.33770243	      3.35678995	     13.69785886	     40.69616217	     -3.39748362	     -7.13993698	    -21.61249706	      4.07519213	      4.74832755	     -1.46281090	      4.73331298	      1.21514302	      8.06366586
      3.40500000	     -9.86711237	      2.89135391	     -9.11790721	     -1.22612650	     -0.05153528	      0.65504908	     -9.30239535	     -3.22929081	     12.31752028	    -11.57803378	     12.11557073	      3.65426830	     14.00055747	     40.74796161	     -3.14156356	     -7.00461845	    -21.90941528	      3.75516004	      4.49120057	     -1.28138739	      5.06087580	      0.71806364	      8.27025999
      3.41000000	     -9.91795832	      3.28765092	     -9.18022765	     -1.21753229	     -0.05280997	      0.65530635	     -9.22125444	     -3.70448894	     11.80680806	    -12.38676619	     11.76629814	      4.34594690	     15.74801783	     40.76062415	     -2.70874704	     -6.81964431	    -22.28272359	      2.62197016	      4.14755408	      1.14957086	      5.30464949	      0.13000989	      8.26386350
      3.41500000	    -10.03080259	      3.57392542	     -9.39153964	     -1.20923049	     -0.05401198	      0.65561703	     -8.94767978	     -4.05224587	     11.68829642	    -13.42492303	     11.46497132	      5.03955031	     16.57814726	     40.88015094	     -2.45663305	     -6.55422862	    -22.83594321	      1.35516782	      3.66832130	      3.54278175	      5.55187050	     -0.29017429	      8.44976887
      3.42000000	    -10.17574481	      3.99917108	     -9.48647341	     -1.20063604	     -0.05519932	      0.65602797	     -8.62810457	     -4.50539475	     11.52977751	    -14.48070458	     10.96697436	      5.45032567	     17.66616532	     41.08524061	     -2.04813609	     -6.38650619	    -23.51284496	     -0.06384962	      3.38054999	      6.30037457	      5.90231015	     -0.89992693	      8.52106118
      3.42500000	    -10.36684255	      4.39466038	     -9.52071110	     -1.19216579	     -0.05639717	      0.65610611	     -8.13623948	     -4.94543852	     11.09972763	    -15.76677551	     10.58977937	      6.38363667	     18.36174709	     41.42907691	     -1.57397598	     -5.92847645	    -24.43359472	     -1.02609741	      3.08988820	      7.36760794	      6.26950228	     -1.44850250	      8.55732580
      3.43000000	    -10.48975821	      4.85049314	     -9.40663114	     -1.18360899	     -0.05748536	      0.65622068	     -7.71227740	     -5.43268528	     10.59122226	    -17.03597418	      9.89792038	      7.02727142	     20.01373409	     41.74458953	     -0.96852984	     -5.48037243	    -25.35273932	     -2.47583992	      2.76189144	      9.99053166	      6.57485343	     -2.12911858	      8.37776890
      3.43500000	    -10.65137764	      5.32716306	     -9.35319160	     -1.17511504	     -0.05846678	      0.65637359	     -7.13685449	     -5.92963347	     10.25079138	    -18.46426072	      9.05955967	      7.57465415	     21.43269826	     42.11317789	     -0.35437560	     -4.93293765	    -26.31845629	     -3.67437717	      2.27349275	     11.83885498	      6.91486554	     -2.81011261	      8.32776015
      3.44000000	    -10.79231528	      5.76474003	     -9.28070301	     -1.16675581	     -0.05938250	      0.65635366	     -6.46774522	     -6.41546752	      9.75366140	    -20.08502069	      8.21161061	      8.47256877	     22.56078942	     42.51223283	      0.26691150	     -4.35612586	    -27.39681146	     -4.40949130	      1.74708426	     12.51747501	      7.19556782	     -3.43635623	      8.29679042
      3.44500000	    -10.87964866	      6.27665775	     -9.12189985	     -1.15821530	     -0.06019944	      0.65639864	     -5.83762795	     -6.97719370	      9.19180700	    -21.68630585	      6.97184838	      9.03754620	     24.68852114	     42.83828212	      1.00484514	     -3.86667559	    -28.41628216	     -4.94445509	      1.13704546	     12.97382666	      7.44753500	     -4.18939063	      8.13033643
      3.45000000	    -10.93891341	      6.75748250	     -9.00623701	     -1.14975782	     -0.06091137	      0.65637514	     -5.14352474	     -7.53031330	      8.69614368	    -23.39324731	      5.53389552	      9.65620557	     26.91069564	     43.11433200	      1.71810198	     -3.41471028	    -29.42817484	     -5.01951359	      0.32462210	     12.08218083	      7.64962105	     -4.89148002	      8.04796626
      3.45500000	    -10.96263844	      7.25548949	     -8.84947643	     -1.14122175	     -0.06158720	      0.65630180	     -4.43328154	     -8.12344109	      8.11771828	    -25.16726716	      3.92093236	     10.30045368	     29.19688263	     43.33008575	      2.46620987	     -3.12023422	    -30.42863534	     -4.56605366	     -0.48219163	      9.78810343	      7.81863739	     -5.61858360	      7.91536520
      3.46000000	    -10.94969167	      7.72461739	     -8.68974592	     -1.13271058	     -0.06220284	      0.65619723	     -3.71080455	     -8.70726431	      7.55957932	    -26.97968785	      2.10041524	     10.97280455	     31.58278063	     43.47314211	      3.18241803	     -2.98621954	    -31.39412048	     -3.74597959	     -1.37037477	      6.34505070	      7.93614645	     -6.31673293	      7.73854214
      3.46500000	    -10.92571496	      8.21555200	     -8.52816534	     -1.12416905	     -0.06274774	      0.65614257	     -2.95463276	     -9.31159247	      7.05627365	    -28.80467084	      0.01732057	     11.44256179	     34.09467522	     43.52862542	      3.91344663	     -2.90839590	    -32.25604170	     -2.59186303	     -2.20918457	      1.94290563	      8.04515221	     -7.04058352	      7.60827126
      3.47000000	    -10.88381689	      8.65924922	     -8.37600067	     -1.11574067	     -0.06321795	      0.65604422	     -2.17061706	     -9.87598353	      6.62480532	    -30.63761877	     -2.27392238	     11.91332699	     36.65157688	     43.50273360	      4.59212948	     -2.87948332	    -33.02403636	     -1.31377187	     -2.99241946	     -2.72832488	      8.11476100	     -7.70738318	      7.47721147
      3.47500000	    -10.85830193	      9.09726514	     -8.20192544	     -1.10734955	     -0.06363294	      0.65597287	     -1.33927280	    -10.42175276	      6.23903068	    -32.45904698	     -4.77199774	     12.23700705	     39.19428090	     43.41843548	      5.25802046	     -2.87934410	    -33.66707097	     -0.05342792	     -3.61450684	     -7.05579635	      8.19499454	     -8.36982000	      7.32291955
      3.48000000	    -10.84183200	      9.48099154	     -8.03019007	     -1.09911157	     -0.06395719	      0.65585683	     -0.46495494	    -10.90100216	      5.95332173	    -34.26200785	     -7.41973494	     12.56183924	     41.65562704	     43.27410613	      5.87481255	     -2.84154850	    -34.19365989	      1.01000240	     -4.14552179	    -10.50492729	      8.25678430	     -8.96085880	      7.16761558
      3.48500000	    -10.83919016	      9.84037570	     -7.82941168	     -1.09101772	     -0.06420995	      0.65570530	      0.45531616	    -11.34767348	      5.67174173	    -36.05635181	    -10.16044501	     12.83041706	     43.98002177	     43.09829452	      6.46975993	     -2.84182326	    -34.63126386	      1.87279028	     -4.55019438	    -13.03029725	      8.30438397	     -9.52430600	      6.92503535
      3.49000000	    -10.87006095	     10.19669358	     -7.60612301	     -1.08296285	     -0.06436620	      0.65550551	      1.42303626	    -11.77374585	      5.46154916	    -37.80581891	    -12.94745758	     13.07503321	     46.25319313	     42.88601683	      7.08815046	     -2.74076132	    -34.95200286	      2.54246537	     -4.88524374	    -14.62692238	      8.39169065	    -10.07476747	      6.67703401
